<svg id="Layer_1" data-name="Layer 1" xmlns="http://www.w3.org/2000/svg" viewBox="0 0 373 233.21"><defs><style>.cls-1{fill:#fff;}</style></defs><title>UpdatedLogo</title><path class="cls-1" d="M186.76,233.75l-.77-.25L0,174.2V61.2L186.27.53,373,60.08v113l-1.73.56ZM5,170.55l181.73,57.95,181.27-59V63.73L186.28,5.79,5,64.83Z" transform="translate(-0.01 -0.53)"/><path class="cls-1" d="M127.28,154v2H79V83.9h47.87v2H81v31.51h43.13v2H81V154Z" transform="translate(-0.01 -0.53)"/><path class="cls-1" d="M193.54,165v4H143v-4Z" transform="translate(-0.01 -0.53)"/><path class="cls-1" d="M196.38,134.89l38.46-52.73h2.83v53.17h13.91v2.2H237.66V157H235.4V137.53h-39Zm38.8-49.65-36.54,50.09H235.4V85.23Z" transform="translate(-0.01 -0.53)"/><path class="cls-1" d="M307,94.76A17.3,17.3,0,0,0,302,88.59a19.08,19.08,0,0,0-7.32-3.38,39.22,39.22,0,0,0-9.09-1,42.2,42.2,0,0,0-7.78.76,22.68,22.68,0,0,0-7.32,2.68,16.3,16.3,0,0,0-5.4,5.1,14.18,14.18,0,0,0-2.12,8,12.75,12.75,0,0,0,2.17,7.78,16.27,16.27,0,0,0,5.66,4.75,32.76,32.76,0,0,0,7.93,2.83q4.44,1,9.09,2.12,5,1.31,9.54,2.53a30.21,30.21,0,0,1,7.83,3.23,15.26,15.26,0,0,1,5.3,5.35q2,3.33,2,9a16.55,16.55,0,0,1-2.22,8.79,18.82,18.82,0,0,1-5.86,6,25.37,25.37,0,0,1-8.18,3.43,40.32,40.32,0,0,1-9.19,1.06,43.22,43.22,0,0,1-11.36-1.41,24,24,0,0,1-9-4.5,20.27,20.27,0,0,1-5.86-7.93,28.67,28.67,0,0,1-2-11.72h2a27.86,27.86,0,0,0,1.92,11,18.65,18.65,0,0,0,5.4,7.32,21.7,21.7,0,0,0,8.28,4.09A41.37,41.37,0,0,0,287,155.71a37.63,37.63,0,0,0,8.43-1,23.76,23.76,0,0,0,7.52-3.08,17.07,17.07,0,0,0,5.4-5.45,14.83,14.83,0,0,0,2.07-8q0-5.45-2.37-8.63a17.08,17.08,0,0,0-6.06-5.05,33.55,33.55,0,0,0-8.18-2.83q-4.5-1-8.64-2-4.34-1-8.69-2.12a31.85,31.85,0,0,1-7.83-3.08,15.84,15.84,0,0,1-5.61-5.25,15.48,15.48,0,0,1-2.12-8.53,16.68,16.68,0,0,1,2.22-8.94A17,17,0,0,1,269,86.12a25.2,25.2,0,0,1,7.93-3,43,43,0,0,1,8.74-.91,39.36,39.36,0,0,1,9.85,1.16,21.92,21.92,0,0,1,7.88,3.74,18.36,18.36,0,0,1,5.4,6.77,26.63,26.63,0,0,1,2.32,10.25h-2A23,23,0,0,0,307,94.76Z" transform="translate(-0.01 -0.53)"/></svg>